<?xml version="1.0" encoding="utf-8"?>
<!-- Generator: Adobe Illustrator 17.0.0, SVG Export Plug-In . SVG Version: 6.00 Build 0)  -->
<!DOCTYPE svg PUBLIC "-//W3C//DTD SVG 1.1//EN" "http://www.w3.org/Graphics/SVG/1.1/DTD/svg11.dtd">
<svg version="1.1" id="图层_1" xmlns="http://www.w3.org/2000/svg" xmlns:xlink="http://www.w3.org/1999/xlink" x="0px" y="0px"
	 width="119.566px" height="38px" viewBox="0 0 119.566 38" enable-background="new 0 0 119.566 38" xml:space="preserve">
<path d="M34.403,24.026c-1.037,5.068-4.133,8.875-7.752,9.384c-3.046,0.428-5.754-1.578-7.715-3.031
	c-2.933-2.174-4.552-4.769-5.374-6.353c-2.189-1.428-4.141-3.189-5.786-5.22c-2.046-2.532-3.563-4.408-3.306-6.75
	c0.245-2.244,1.99-3.772,4.133-5.648c1.491-1.304,3.161-2.388,4.96-3.22h20.841c6.373-0.606,11.786,4.339,11.951,10.107
	C46.524,19.271,41.018,24.635,34.403,24.026z"/>
<path fill="#FFFFFF" d="M12.65,9.956c-0.446-0.008-0.8-0.376-0.791-0.822c0.004-0.205,0.086-0.401,0.228-0.547l3.874-3.903
	c0.298-0.324,0.803-0.344,1.126-0.046c0.013,0.011,0.025,0.023,0.037,0.036c0.311,0.315,0.311,0.821,0,1.135l-3.903,3.903
	C13.073,9.869,12.867,9.957,12.65,9.956z M10.446,12.17c-0.209-0.002-0.41-0.082-0.563-0.225c-0.311-0.314-0.311-0.821,0-1.135
	l0.328-0.328c0.309-0.313,0.814-0.316,1.127-0.007l0.008,0.007c0.311,0.315,0.311,0.821,0,1.135l-0.328,0.328
	c-0.152,0.151-0.358,0.234-0.572,0.233L10.446,12.17z"/>
<path fill="#FF8A52" d="M35.82,10.941l-0.178,7.842l-10.072,9.211L35.82,10.941z"/>
<path fill="#FF8A52" d="M35.82,10.941L25.569,27.995l3.105-13.134L35.82,10.941z"/>
<path fill="#FF8B53" d="M34.319,13.436l0.084,1.464l-1.229,0.431L34.319,13.436z"/>
<path fill="#FFA47B" d="M34.319,13.436l-1.248,0.6l0.15,1.295L34.319,13.436z"/>
<path fill="#FF8A52" d="M25.569,27.995l-10.077-9.211l-0.178-7.842L25.569,27.995z M22.465,14.815l3.105,13.134L15.314,10.941
	L22.465,14.815z"/>
<path fill="#FF8B53" d="M17.96,15.331L16.731,14.9l0.084-1.464L17.96,15.331z"/>
<path fill="#FFA47B" d="M17.96,15.331l0.15-1.295l-1.295-0.6L17.96,15.331z"/>
<path fill="#FFCB71" d="M31.946,7.404l1.981,8.274l-8.358,12.317L31.946,7.404z"/>
<path fill="#FFCB71" d="M31.946,7.404l-6.377,20.59l-0.169-14.643L31.946,7.404z"/>
<path fill="#FF8741" d="M31.055,10.256l0.525,1.642l-1.397,1.182L31.055,10.256z"/>
<path fill="#FFE971" d="M31.055,10.256l-1.426,0.938l0.554,1.876L31.055,10.256z"/>
<path fill="#FFB259" d="M65.826,17.685l0.142,0.591l-2.048,3.018l0.253-1.667L65.826,17.685z"/>
<path fill="#FFCB71" d="M25.569,27.995l-8.358-12.317l1.979-8.274L25.569,27.995z"/>
<path fill="#FFCB71" d="M25.736,13.352l-0.167,14.643l-6.381-20.59L25.736,13.352z"/>
<path fill="#FF8741" d="M20.952,13.08l-1.398-1.182l0.525-1.642L20.952,13.08z"/>
<path fill="#FFE971" d="M20.952,13.08l0.553-1.876l-1.426-0.938L20.952,13.08z"/>
<path fill="#FFB259" d="M24.535,21.194l1.034,6.801l-8.358-12.317l0.581-2.411L24.535,21.194z"/>
<path fill="#FFFCB0" d="M25.569,4.825l-4.692,7.927l4.692,15.243V4.825z"/>
<path fill="#FFD96F" d="M25.569,4.825v23.17l4.735-15.075L25.569,4.825z"/>
<path fill="#FF8BA5" d="M25.569,8.615l-1.726,2.495l1.726,2.101V8.615z"/>
<path fill="#F05A57" d="M25.569,8.615l1.633,2.495l-1.633,2.101V8.615z"/>
<path fill="#FCC12D" d="M99.351,3.254H40.735l-2.892-2.97H13.291L0.818,13.154l24.551,24.752l4.979-4.953l69.003-0.027
	c6.325,0.081,11.513-6.219,11.922-13.764C111.722,10.892,106.317,3.214,99.351,3.254z M4.976,13.154l9.9-9.9h20.79l9.9,9.9
	L25.369,33.348L4.976,13.154z"/>
<path fill="#FFFFFF" d="M97.59,15.794c-0.309,2.348-1.311,4.254-3.005,5.717c-1.628,1.386-3.508,2.079-5.64,2.079H80.85
	l-0.686,5.226h-4.816l1.391-10.594h13.372c0.648,0.004,1.275-0.236,1.755-0.672c0.511-0.448,0.814-1.042,0.911-1.783
	c0.097-0.741-0.052-1.325-0.446-1.753c-0.395-0.429-0.922-0.643-1.582-0.643H77.379l3.884-5.372h9.739
	c2.121,0,3.814,0.693,5.079,2.078C97.395,11.54,97.898,13.446,97.59,15.794z M67.901,28.815l2.733-20.816h4.816l-2.733,20.817
	L67.901,28.815z M55.58,29.132c-0.778,0-1.452-0.789-2.023-2.368l-6.76-18.765h5.23l4.577,12.877l7.574-12.877h5.266L58.143,26.795
	c-0.932,1.56-1.787,2.34-2.564,2.34L55.58,29.132z"/>
</svg>
