<?xml version="1.0" encoding="utf-8"?>
<!-- Generator: Adobe Illustrator 17.0.0, SVG Export Plug-In . SVG Version: 6.00 Build 0)  -->
<!DOCTYPE svg PUBLIC "-//W3C//DTD SVG 1.1//EN" "http://www.w3.org/Graphics/SVG/1.1/DTD/svg11.dtd">
<svg version="1.1" id="图层_1" xmlns="http://www.w3.org/2000/svg" xmlns:xlink="http://www.w3.org/1999/xlink" x="0px" y="0px"
	 width="32px" height="32px" viewBox="0 0 32 32" enable-background="new 0 0 32 32" xml:space="preserve">
<path fill="#6D6D6D" d="M22.879,6.679H8.496c-2.238,0-3.996,1.758-3.996,3.996v11.187c0,2.237,1.758,3.996,3.996,3.996h14.384
	c2.237,0,3.996-1.758,3.996-3.996V10.674C26.875,8.437,25.117,6.679,22.879,6.679z M25.277,21.862c0,1.358-1.039,2.397-2.397,2.397
	H8.496c-1.358,0-2.397-1.039-2.397-2.397V10.674c0-1.358,1.039-2.397,2.397-2.397h14.384c1.358,0,2.397,1.039,2.397,2.397V21.862z"
	/>
<path fill="#6D6D6D" d="M20.003,15.549l-6.393-2.797c-0.559-0.24-1.119,0.16-1.119,0.719v5.594c0,0.559,0.559,0.959,1.119,0.719
	l6.393-2.797C20.642,16.747,20.642,15.788,20.003,15.549z"/>
</svg>
