<?xml version="1.0" standalone="no"?><!DOCTYPE svg PUBLIC "-//W3C//DTD SVG 1.1//EN" "http://www.w3.org/Graphics/SVG/1.1/DTD/svg11.dtd"><svg t="1553654505525" class="icon" style="" viewBox="0 0 1026 1024" version="1.1" xmlns="http://www.w3.org/2000/svg" p-id="12562" xmlns:xlink="http://www.w3.org/1999/xlink" width="48.09375" height="48"><defs><style type="text/css"></style></defs><path d="M784.921795 1002.4c-11.2 0-22.4-2.7-32.8-8.2L512.021795 868 271.921795 994.2c-23.9 12.6-52.3 10.5-74.2-5.4-21.9-15.9-32.6-42.3-28-68.9l45.9-267.3L21.321795 463.3C2.021795 444.4-4.878205 416.7 3.521795 391s30.1-44.1 56.9-47.9l268.4-39 120-243.2c12-24.2 36.2-39.3 63.2-39.3 27 0 51.2 15 63.2 39.3L682.821795 278.9c7.8 15.8 1.3 35-14.5 42.9-15.8 7.8-35 1.3-42.9-14.5L517.821795 89.2c-1.2-2.4-3.1-3.6-5.8-3.6s-4.6 1.2-5.8 3.6L378.721795 347.5c-4.7 9.4-13.7 16-24.1 17.5l-285.1 41.4c-2.6 0.4-4.4 1.9-5.2 4.4s-0.3 4.8 1.6 6.6l206.3 201.1c7.5 7.4 11 17.9 9.2 28.3l-48.7 283.9c-0.4 2.6 0.4 4.7 2.6 6.3 2.2 1.6 4.4 1.7 6.8 0.5l255-134.1c9.3-4.9 20.5-4.9 29.8 0l255 134.1c2.4 1.2 4.6 1.1 6.8-0.5 2.2-1.6 3-3.7 2.6-6.3l-48.7-283.9c-1.8-10.4 1.7-21 9.2-28.3L958.021795 417.4c1.9-1.9 2.5-4.1 1.6-6.6-0.8-2.5-2.6-4-5.2-4.4l-192.8-28c-17.5-2.5-29.6-18.8-27.1-36.3s18.8-29.6 36.3-27.1l192.8 28c26.7 3.9 48.5 22.3 56.9 47.9 8.3 25.7 1.5 53.4-17.8 72.2L808.421795 652.6l45.9 267.3c4.6 26.6-6.2 53-28 68.9C813.921795 997.8 799.521795 1002.4 784.921795 1002.4z" p-id="12563"></path></svg>