<?xml version="1.0" encoding="utf-8"?>
<!-- Generator: Adobe Illustrator 17.0.0, SVG Export Plug-In . SVG Version: 6.00 Build 0)  -->
<!DOCTYPE svg PUBLIC "-//W3C//DTD SVG 1.1//EN" "http://www.w3.org/Graphics/SVG/1.1/DTD/svg11.dtd">
<svg version="1.1" id="图层_1" xmlns="http://www.w3.org/2000/svg" xmlns:xlink="http://www.w3.org/1999/xlink" x="0px" y="0px"
	 width="38px" height="38px" viewBox="0 0 38 38" enable-background="new 0 0 38 38" xml:space="preserve">
<path d="M14.756,20.029c-4.329-2.827-6.05-8.324-4.105-13.115c1.945-4.791,7.011-7.533,12.085-6.542
	c5.075,0.991,8.737,5.437,8.736,10.608c0,5.968-4.837,10.806-10.805,10.808C11.717,21.788,4.46,29.047,4.46,38H1.758
	C1.758,29.619,7.208,22.511,14.756,20.029z M31.435,35.634h-2.621c-0.609,0-1.108-0.48-1.111-1.069l-0.001-0.122
	c-0.001-0.286-0.114-0.553-0.318-0.752c-0.328-0.322-0.86-0.388-1.252-0.165l-0.111,0.064c-0.254,0.144-0.564,0.186-0.848,0.113
	c-0.286-0.074-0.534-0.258-0.68-0.506l-1.31-2.221c-0.299-0.508-0.12-1.162,0.401-1.459l0.108-0.061
	c0.249-0.142,0.427-0.37,0.502-0.643c0.075-0.272,0.038-0.555-0.105-0.797c-0.093-0.158-0.227-0.289-0.388-0.378l-0.11-0.061
	c-0.529-0.295-0.712-0.952-0.41-1.464l1.31-2.221c0.148-0.251,0.388-0.43,0.676-0.505c0.291-0.074,0.595-0.033,0.847,0.109
	l0.11,0.062c0.324,0.183,0.732,0.183,1.05,0.008c0.162-0.09,0.297-0.221,0.392-0.381c0.095-0.16,0.144-0.342,0.142-0.528
	l-0.001-0.124c-0.003-0.284,0.115-0.563,0.322-0.765c0.206-0.202,0.494-0.317,0.788-0.317l2.622,0c0.296,0,0.575,0.112,0.785,0.314
	c0.21,0.203,0.325,0.473,0.325,0.761v0.123c0,0.584,0.472,1.059,1.053,1.059c0.182,0,0.361-0.047,0.519-0.138l0.112-0.064
	c0.253-0.145,0.563-0.188,0.85-0.115c0.286,0.073,0.534,0.258,0.681,0.507l1.31,2.221c0.3,0.509,0.119,1.164-0.403,1.46
	l-0.108,0.061c-0.517,0.293-0.696,0.939-0.399,1.442c0.092,0.158,0.225,0.288,0.385,0.377l0.109,0.061
	c0.527,0.296,0.71,0.952,0.408,1.463l-1.309,2.22c-0.146,0.247-0.392,0.431-0.675,0.505c-0.275,0.072-0.591,0.035-0.845-0.107
	l-0.111-0.063c-0.323-0.181-0.73-0.181-1.047-0.006c-0.162,0.089-0.297,0.221-0.391,0.38c-0.094,0.158-0.143,0.339-0.143,0.523
	l0,0.123c0.001,0.288-0.114,0.558-0.324,0.762C32.012,35.522,31.732,35.634,31.435,35.634z M27.052,31.994
	c0.477,0,0.927,0.183,1.265,0.515c0.34,0.333,0.528,0.776,0.53,1.249l0.001,0.108c0,0.063,0.053,0.114,0.118,0.114h2.318
	c0.031,0,0.061-0.012,0.084-0.034c0.022-0.021,0.034-0.05,0.034-0.081l0-0.109c0-0.309,0.083-0.613,0.24-0.879
	c0.161-0.272,0.392-0.497,0.67-0.649c0.543-0.299,1.241-0.298,1.787,0.008l0.098,0.055c0.018,0.01,0.038,0.015,0.059,0.015
	c0.061-0.012,0.087-0.031,0.102-0.057l1.159-1.964c0.032-0.054,0.013-0.124-0.043-0.155l-0.096-0.054
	c-0.273-0.152-0.5-0.374-0.658-0.643c-0.496-0.84-0.196-1.922,0.667-2.411l0.096-0.054c0.055-0.032,0.075-0.101,0.043-0.155
	l-1.159-1.965c-0.016-0.027-0.042-0.046-0.072-0.054c-0.052-0.004-0.072,0.002-0.091,0.012l-0.099,0.057
	C33.83,25.018,33.52,25.1,33.204,25.1c-0.99,0-1.796-0.796-1.796-1.773v-0.109c0-0.031-0.012-0.059-0.034-0.081
	c-0.023-0.021-0.052-0.033-0.083-0.033l-2.319,0c-0.031,0-0.061,0.012-0.083,0.034c-0.022,0.021-0.035,0.05-0.034,0.081l0.001,0.11
	c0.003,0.311-0.08,0.618-0.24,0.888c-0.161,0.272-0.392,0.496-0.669,0.649c-0.545,0.3-1.245,0.298-1.792-0.011l-0.097-0.055
	c-0.018-0.01-0.039-0.016-0.06-0.016c-0.061,0.012-0.087,0.031-0.103,0.058l-1.159,1.964c-0.032,0.055-0.013,0.124,0.044,0.156
	l0.097,0.054c0.274,0.152,0.503,0.375,0.663,0.645c0.24,0.407,0.302,0.881,0.177,1.336c-0.125,0.454-0.424,0.836-0.84,1.074
	l-0.096,0.055c-0.055,0.032-0.074,0.101-0.042,0.155l1.159,1.964c0.016,0.026,0.042,0.046,0.072,0.054
	c0.051,0.004,0.072-0.002,0.09-0.012l0.098-0.056C26.429,32.075,26.738,31.993,27.052,31.994z M30.129,31.851
	c-1.886,0-3.42-1.485-3.42-3.31c0-1.825,1.534-3.31,3.42-3.31c1.886,0,3.42,1.485,3.42,3.31
	C33.55,30.367,32.015,31.851,30.129,31.851z M30.129,26.216c-1.325,0-2.404,1.044-2.404,2.326c0,1.282,1.078,2.326,2.404,2.326
	s2.404-1.044,2.404-2.326C32.533,27.259,31.454,26.216,30.129,26.216z M20.668,19.086c4.476-0.001,8.104-3.63,8.104-8.106
	c0-3.279-1.975-6.234-5.004-7.489c-3.029-1.255-6.516-0.561-8.834,1.758c-2.318,2.319-3.011,5.805-1.756,8.834
	S17.389,19.087,20.668,19.086z"/>
</svg>
