<?xml version="1.0" standalone="no"?><!DOCTYPE svg PUBLIC "-//W3C//DTD SVG 1.1//EN" "http://www.w3.org/Graphics/SVG/1.1/DTD/svg11.dtd"><svg t="1553764058829" class="icon" style="" viewBox="0 0 1024 1024" version="1.1" xmlns="http://www.w3.org/2000/svg" p-id="20984" xmlns:xlink="http://www.w3.org/1999/xlink" width="48" height="48"><defs><style type="text/css"></style></defs><path d="M195.2 195.2C19.2 371.2 19.2 656 195.2 828.8c176 176 460.8 176 633.6 0 176-176 176-460.8 0-633.6C656 19.2 368 19.2 195.2 195.2z m441.6 22.4c12.8 12.8 12.8 32 0 44.8L390.4 512l249.6 249.6c12.8 12.8 12.8 32 0 44.8s-32 12.8-44.8 0l-272-272c-12.8-12.8-12.8-32 0-44.8l272-272c9.6-12.8 32-12.8 41.6 0z" p-id="20985"></path></svg>